<?xml version="1.0" standalone="no"?>
<!DOCTYPE svg PUBLIC "-//W3C//DTD SVG 20010904//EN"
 "http://www.w3.org/TR/2001/REC-SVG-20010904/DTD/svg10.dtd">
<svg version="1.0" xmlns="http://www.w3.org/2000/svg"
 width="3840.000000pt" height="2160.000000pt" viewBox="0 0 3840.000000 2160.000000"
 preserveAspectRatio="xMidYMid meet">

<g transform="translate(0.000000,2160.000000) scale(0.100000,-0.100000)"
fill="#000000" stroke="none">
<path d="M4852 20778 l3 -112 181 -131 c308 -221 507 -381 656 -524 175 -169
438 -450 516 -552 31 -41 79 -102 105 -134 45 -56 106 -143 262 -370 34 -49
93 -142 130 -205 38 -63 101 -167 140 -230 138 -220 528 -975 760 -1470 43
-91 119 -253 170 -360 51 -107 130 -274 175 -370 45 -96 122 -258 170 -360
121 -257 215 -454 460 -975 117 -247 247 -524 290 -615 43 -91 173 -367 290
-615 117 -247 248 -526 292 -620 44 -93 116 -246 160 -340 44 -93 118 -249
163 -345 88 -186 720 -1530 912 -1940 63 -135 150 -319 193 -410 43 -91 131
-277 195 -415 182 -388 482 -1027 650 -1385 84 -179 206 -437 270 -575 64
-137 152 -324 195 -415 72 -154 194 -413 373 -795 164 -351 313 -668 382 -815
40 -85 125 -267 190 -405 64 -137 150 -320 190 -405 254 -541 414 -882 612
-1305 124 -264 260 -554 303 -645 43 -91 111 -237 153 -325 196 -420 701
-1493 791 -1685 l102 -215 3914 0 3914 0 115 246 c64 135 151 319 193 410 108
230 215 459 441 939 107 228 331 705 497 1060 166 355 337 719 380 810 43 91
131 278 195 415 64 138 150 320 190 405 40 85 158 337 263 560 180 384 363
775 618 1318 63 133 166 353 230 490 241 513 268 571 344 732 43 91 131 278
195 415 64 138 150 320 190 405 40 85 124 265 188 400 317 677 780 1662 897
1910 73 155 287 610 460 980 43 91 133 282 200 425 67 143 155 330 195 415
134 285 302 644 815 1735 111 237 235 500 275 585 40 85 163 349 275 585 111
237 235 500 275 585 294 629 382 814 521 1086 271 534 400 763 686 1219 175
279 440 628 671 883 121 134 365 368 499 479 144 119 396 307 536 398 l92 60
0 113 0 112 -5805 0 -5805 0 0 -114 0 -114 158 -98 c236 -147 434 -300 619
-479 176 -169 262 -275 375 -461 128 -212 192 -367 243 -593 34 -150 44 -275
40 -511 -5 -306 -40 -511 -158 -915 -112 -382 -211 -611 -842 -1950 -246 -522
-480 -1020 -520 -1105 -40 -85 -129 -274 -197 -420 -69 -146 -176 -373 -238
-505 -62 -132 -147 -314 -190 -405 -313 -663 -637 -1354 -1065 -2265 -185
-396 -370 -790 -410 -875 -40 -85 -125 -267 -190 -405 -213 -455 -358 -755
-365 -755 -4 0 -38 64 -75 143 -316 660 -976 2062 -1515 3217 -192 412 -362
774 -873 1860 -107 228 -247 528 -312 665 -64 138 -150 320 -190 405 -217 461
-400 852 -502 1070 -63 135 -157 333 -209 440 -193 404 -344 816 -417 1145
-55 243 -78 402 -92 640 -11 184 26 451 99 720 37 135 185 416 302 575 70 95
254 290 352 373 199 168 524 402 642 462 l50 25 0 115 0 115 -5805 0 -5806 0
3 -112z m9436 -1025 c-12 -21 -34 -54 -50 -73 -15 -19 -63 -109 -107 -200
-148 -306 -223 -648 -220 -1000 3 -271 45 -603 108 -845 136 -522 256 -839
584 -1540 41 -88 118 -254 172 -370 127 -273 194 -415 575 -1220 199 -419 372
-786 445 -945 34 -74 146 -313 248 -530 370 -791 572 -1221 704 -1505 75 -159
168 -360 208 -445 156 -333 297 -634 395 -845 56 -121 130 -281 165 -355 35
-74 109 -234 165 -355 133 -285 337 -718 677 -1440 311 -658 485 -1027 612
-1300 183 -390 224 -475 230 -475 4 0 55 102 113 227 59 126 155 329 213 453
59 124 140 295 180 380 40 85 166 353 280 595 194 412 245 521 430 915 40 85
125 268 190 405 223 475 438 935 530 1135 34 74 94 203 133 285 38 83 118 254
177 380 59 127 135 291 170 365 110 235 415 889 485 1040 143 307 211 452 305
650 160 339 551 1173 950 2030 82 175 194 416 295 630 369 786 483 1049 578
1340 132 401 191 646 228 942 21 179 30 578 14 686 -21 146 -77 392 -110 487
-41 115 -146 324 -221 440 l-58 90 1769 3 c974 1 2567 1 3541 0 l1772 -3 -43
-54 c-24 -30 -97 -129 -163 -220 -423 -585 -818 -1278 -1277 -2241 -154 -322
-427 -901 -545 -1155 -133 -287 -231 -496 -335 -715 -48 -102 -138 -293 -200
-425 -122 -260 -557 -1181 -718 -1520 -54 -115 -148 -313 -207 -440 -166 -355
-426 -910 -710 -1515 -40 -85 -126 -267 -190 -405 -132 -281 -270 -575 -498
-1060 -85 -181 -207 -442 -272 -580 -64 -137 -186 -396 -270 -575 -84 -179
-206 -437 -270 -575 -64 -137 -152 -324 -195 -415 -43 -91 -164 -349 -270
-575 -106 -225 -227 -484 -270 -575 -138 -293 -464 -988 -585 -1245 -227 -485
-593 -1264 -735 -1565 -43 -91 -200 -426 -350 -745 -252 -537 -554 -1178 -621
-1320 l-29 -61 -3211 1 -3210 0 -160 340 c-88 187 -209 444 -269 570 -98 210
-382 814 -575 1225 -184 392 -474 1009 -550 1170 -45 96 -133 283 -195 415
-132 283 -209 447 -435 925 -92 195 -185 391 -205 435 -34 73 -263 559 -465
985 -46 96 -136 288 -200 425 -64 138 -153 325 -196 418 -175 370 -245 519
-429 912 -106 226 -232 493 -280 595 -48 102 -174 370 -280 595 -106 226 -225
480 -265 565 -40 85 -216 459 -390 830 -174 371 -347 738 -382 815 -111 237
-448 955 -586 1245 -185 392 -590 1249 -887 1880 -146 310 -458 975 -574 1225
-128 273 -470 935 -601 1159 -235 406 -499 811 -716 1103 l-107 142 142 3 c77
2 1668 4 3533 6 l3392 2 -21 -37z"/>
</g>
</svg>
