<svg xmlns="http://www.w3.org/2000/svg" xmlns:xlink="http://www.w3.org/1999/xlink" viewBox="0 0 422.63 90"><defs><style>.cls-1{fill:#fff;}.cls-2{fill:url(#linear-gradient);}.cls-3{fill:url(#linear-gradient-2);}.cls-4{fill:url(#linear-gradient-3);}.cls-5{fill:url(#linear-gradient-4);}</style><linearGradient id="linear-gradient" x1="-31.72" y1="-1314.38" x2="39.13" y2="-1339.28" gradientTransform="matrix(1, 0, 0, -1, 0, -1293.01)" gradientUnits="userSpaceOnUse"><stop offset="0" stop-color="#feeeb6"/><stop offset="1" stop-color="#b49248"/></linearGradient><linearGradient id="linear-gradient-2" x1="24.76" y1="-1266.55" x2="78.77" y2="-1395.38" xlink:href="#linear-gradient"/><linearGradient id="linear-gradient-3" x1="81.39" y1="-1288.97" x2="107.33" y2="-1387.81" xlink:href="#linear-gradient"/><linearGradient id="linear-gradient-4" x1="42.4" y1="-1289.55" x2="90.12" y2="-1346.95" xlink:href="#linear-gradient"/></defs><g id="Layer_2" data-name="Layer 2"><g id="Layer_1-2" data-name="Layer 1"><path class="cls-1" d="M140.58,72l-.21-4.68.72,0c.12.51.24,1,.39,1.5.69,2.19,2,3.57,4.56,3.57,2.76,0,4.35-1.56,4.35-4,0-2.13-1.41-3.36-3.45-4.35l-.93-.45c-3.36-1.59-5-3-5-6,0-3.36,2.79-5.43,6.72-5.43a12,12,0,0,1,4.59.9l0,4.29h-.66c-.09-.48-.21-.9-.33-1.35a3.56,3.56,0,0,0-3.81-3c-2.4,0-3.84,1.35-3.84,3.51s.9,3.06,3.81,4.5l.9.45c2.64,1.35,4.77,2.85,4.77,5.85,0,3.93-3.27,5.85-7.23,5.85A12,12,0,0,1,140.58,72Z"/><path class="cls-1" d="M156.06,66.55c0-4.32,2.94-7.35,7.14-7.35,2.76,0,4.22,1.17,4.22,2A1.56,1.56,0,0,1,166,62.56c-.33,0-.72-.42-1.2-1l-.42-.45c-.81-.81-1.08-1-2-1-2.17,0-3.78,2.16-3.78,5.34,0,3.72,2.22,6.06,5,6.06A5.14,5.14,0,0,0,167.25,70l.38.54a7.46,7.46,0,0,1-5.54,2.7C159,73.21,156.06,70.84,156.06,66.55Z"/><path class="cls-1" d="M169.22,72.79v-.6l2.41-.6V52.72l-2.32-.66v-.57l4.78-.6L174,61.45h.07a6.3,6.3,0,0,1,4.79-2.31c2.4,0,3.93,1.32,3.93,4v8.49l2.31.6v.6H178v-.6l2.4-.6V63.67a2.69,2.69,0,0,0-2.91-2.91,4.32,4.32,0,0,0-3.35,1.5v9.33l2.39.6v.6Z"/><path class="cls-1" d="M187,66.37a6.73,6.73,0,0,1,6.86-7.11,6.95,6.95,0,0,1,0,13.89C189.63,73.15,187,70.42,187,66.37Zm11,.48c0-3.54-1.41-6.75-4.37-6.75-2.58,0-3.91,2.34-3.91,5.52,0,3.84,1.62,6.75,4.35,6.75C196.58,72.37,198,70.24,198,66.85Z"/><path class="cls-1" d="M203.15,66.37A6.73,6.73,0,0,1,210,59.26a6.95,6.95,0,0,1,0,13.89C205.82,73.15,203.15,70.42,203.15,66.37Zm11,.48c0-3.54-1.41-6.75-4.38-6.75-2.58,0-3.9,2.34-3.9,5.52,0,3.84,1.62,6.75,4.35,6.75C212.78,72.37,214.16,70.24,214.16,66.85Z"/><path class="cls-1" d="M218.87,72.79v-.6l2.4-.6V52.72L219,52.06v-.57l4.77-.6v20.7l2.4.6v.6Z"/><path class="cls-1" d="M234.71,69.16c0-3.63,3.15-9.69,7.5-9.69,2.19,0,3.57,1.41,3.57,3.9,0,3.45-3,9.66-7.5,9.66C236.15,73,234.71,71.8,234.71,69.16Zm9.09-7c0-1.44-.69-2-1.53-2-2.61,0-5.61,7.38-5.61,10.38,0,1.29.57,1.95,1.5,1.95C240.68,72.49,243.8,65.53,243.8,62.11Z"/><path class="cls-1" d="M241.28,79.66a.79.79,0,0,1,.81-.84c.21,0,.39.21,1,.72a1.53,1.53,0,0,0,.93.51c.69,0,1.29-1,2.16-4,.57-1.8,1.05-3.66,4.17-14.55H248l.24-.81,2.37-.06.81-2.52a11,11,0,0,1,3.33-5.49,5.46,5.46,0,0,1,3.45-1.23c1.44,0,2.4.54,2.4,1a1.31,1.31,0,0,1-1.17,1.08c-.21,0-.45-.24-.66-.39a3.2,3.2,0,0,0-1.92-.78,2,2,0,0,0-1.5,1,18.38,18.38,0,0,0-1.59,4.11l-1,3.3h3l-.27.87h-3L250,69.79a57.33,57.33,0,0,1-2.4,7.2c-1.17,2.37-2.55,3.75-4.59,3.75C242.06,80.74,241.28,80.35,241.28,79.66Z"/><path class="cls-1" d="M280.91,72.85c-4.05,0-6.84-.06-9.51-.06h-7.5v-.6l3.27-.75V53.83l-3.24-.72v-.6h8.82c3,0,5.91-.09,7.35-.09l-.18,4.41h-.69l0-.24c-.24-2.07-.84-2.7-2.67-2.94-1.41-.15-5-.21-6.45-.21V62c.45,0,7-.18,7.35-.18s.54-.12.63-.48l.57-2.52h.66V66h-.69L278,63.43c-.09-.36-.27-.45-.63-.48l-7.32-.15v9.06c6.24-.15,7.38-.21,8-.3,1.92-.33,2.31-2,3.12-3.9h.66Z"/><path class="cls-1" d="M283.61,72.79v-.6l2.4-.6v-10l-2-.36v-.57a7.73,7.73,0,0,0,3.93-2.13h.51v2.91h0a6.33,6.33,0,0,1,4.8-2.31c2.4,0,3.93,1.32,3.93,4v8.49l2.31.6v.6h-7.17v-.6l2.4-.6V63.67a2.69,2.69,0,0,0-2.91-2.91,4.34,4.34,0,0,0-3.36,1.5v9.33l2.4.6v.6Z"/><path class="cls-1" d="M300.86,77.26c0-1.47,1.77-2.67,3.75-3.78v-.21a5.87,5.87,0,0,1-3-2.7v-.3c1-.57,2.58-1.44,3.39-1.83v-.18A4.4,4.4,0,0,1,302,64c0-2.76,2.19-4.71,5.22-4.71a8.7,8.7,0,0,1,3.75,1h4.2v1.56h-3.3v0a4.54,4.54,0,0,1,.36,1.92c0,3.12-2.4,4.86-5.28,4.86a8.07,8.07,0,0,1-.93-.06c-.6.36-1.47.9-1.47,1.47,0,1.17,1.71,1.47,4.5,1.47,3.09,0,5.52.6,5.52,3.24,0,3.36-3.78,6-8.22,6C303,80.74,300.86,79.18,300.86,77.26Zm11.79-1.47c0-1.92-2-2.31-4.89-2.31h-2c-1.08.63-2.52,1.89-2.52,3.18,0,1.68,1.89,2.85,4.41,2.85C310.73,79.51,312.65,78,312.65,75.79Zm-2.73-11.64c0-2.52-1.08-4.17-3-4.17-1.68,0-2.64,1.32-2.64,3.48,0,2.4,1.08,4.38,3,4.38C309,67.84,309.92,66.31,309.92,64.15Z"/><path class="cls-1" d="M316.46,72.79v-.6l2.4-.6v-10l-2-.36v-.57a7.83,7.83,0,0,0,4-2.13h.51V71.59l2.4.6v.6ZM318.56,53a1.54,1.54,0,0,1,1.59-1.56A1.51,1.51,0,0,1,321.77,53a1.47,1.47,0,0,1-1.62,1.56A1.54,1.54,0,0,1,318.56,53Z"/><path class="cls-1" d="M325.28,72.79v-.6l2.4-.6v-10l-2-.36v-.57a7.73,7.73,0,0,0,3.93-2.13h.51v2.91h0a6.33,6.33,0,0,1,4.8-2.31c2.4,0,3.93,1.32,3.93,4v8.49l2.31.6v.6H334v-.6l2.4-.6V63.67a2.69,2.69,0,0,0-2.91-2.91,4.34,4.34,0,0,0-3.36,1.5v9.33l2.4.6v.6Z"/><path class="cls-1" d="M343,66.43c0-4.41,2.79-7.23,6.24-7.23a4.86,4.86,0,0,1,3.36,1.11,10.29,10.29,0,0,1,2,3.27l-.21.54-8.91-.06a4.89,4.89,0,0,0-.09,1.23c0,3.12,1.65,6.18,5.16,6.18a5.8,5.8,0,0,0,3.84-1.5l.33.51a8,8,0,0,1-5.55,2.7C346,73.18,343,70.75,343,66.43Zm8-3.27c.57,0,.78-.06.78-.51A2.59,2.59,0,0,0,349.1,60a3.73,3.73,0,0,0-3.45,3.36C347.45,63.25,349.28,63.25,351.08,63.16Z"/><path class="cls-1" d="M357.05,66.43c0-4.41,2.79-7.23,6.24-7.23a4.86,4.86,0,0,1,3.36,1.11,10.29,10.29,0,0,1,2,3.27l-.21.54-8.91-.06a4.89,4.89,0,0,0-.09,1.23c0,3.12,1.65,6.18,5.16,6.18a5.8,5.8,0,0,0,3.84-1.5l.33.51a8,8,0,0,1-5.55,2.7C360,73.18,357.05,70.75,357.05,66.43Zm8-3.27c.57,0,.78-.06.78-.51A2.59,2.59,0,0,0,363.11,60a3.73,3.73,0,0,0-3.45,3.36C361.46,63.25,363.29,63.25,365.09,63.16Z"/><path class="cls-1" d="M370.73,72.79v-.6l2.25-.66V61.72l-2-.36v-.57a5.93,5.93,0,0,0,3.81-2.46h.6v3.36h0c.48-.72,1.95-2.46,3.72-2.46,1.11,0,1.65.57,1.65,1.32a1.59,1.59,0,0,1-1.44,1.56,18.24,18.24,0,0,0-2-1c-.84,0-1.71,1.2-1.89,1.86v8.58l3.48.66v.6Z"/><path class="cls-1" d="M382.28,72.79v-.6l2.4-.6v-10l-2-.36v-.57a7.83,7.83,0,0,0,4-2.13h.51V71.59l2.4.6v.6ZM384.38,53A1.54,1.54,0,0,1,386,51.4,1.51,1.51,0,0,1,387.59,53,1.47,1.47,0,0,1,386,54.52,1.54,1.54,0,0,1,384.38,53Z"/><path class="cls-1" d="M391.1,72.79v-.6l2.4-.6v-10l-2-.36v-.57a7.73,7.73,0,0,0,3.93-2.13h.51v2.91h0a6.33,6.33,0,0,1,4.8-2.31c2.4,0,3.93,1.32,3.93,4v8.49l2.31.6v.6h-7.17v-.6l2.4-.6V63.67a2.69,2.69,0,0,0-2.91-2.91,4.34,4.34,0,0,0-3.36,1.5v9.33l2.4.6v.6Z"/><path class="cls-1" d="M408.35,77.26c0-1.47,1.77-2.67,3.75-3.78v-.21a5.87,5.87,0,0,1-3-2.7v-.3c1-.57,2.58-1.44,3.39-1.83v-.18a4.4,4.4,0,0,1-3-4.29c0-2.76,2.19-4.71,5.22-4.71a8.7,8.7,0,0,1,3.75,1h4.2v1.56h-3.3v0a4.54,4.54,0,0,1,.36,1.92c0,3.12-2.4,4.86-5.28,4.86a8.07,8.07,0,0,1-.93-.06c-.6.36-1.47.9-1.47,1.47,0,1.17,1.71,1.47,4.5,1.47,3.09,0,5.52.6,5.52,3.24,0,3.36-3.78,6-8.22,6C410.45,80.74,408.35,79.18,408.35,77.26Zm11.79-1.47c0-1.92-2-2.31-4.89-2.31h-2c-1.08.63-2.52,1.89-2.52,3.18,0,1.68,1.89,2.85,4.41,2.85C418.22,79.51,420.14,78,420.14,75.79Zm-2.73-11.64c0-2.52-1.08-4.17-3-4.17-1.68,0-2.64,1.32-2.64,3.48,0,2.4,1.08,4.38,3,4.38C416.45,67.84,417.41,66.31,417.41,64.15Z"/><path class="cls-1" d="M149.06,40.42,141.45,24c-.8-1.73-1.24-2.2-2.79-2.83v-.4h9.19v.4c-2.18.68-2.52,1.26-1.79,2.86l6,13.23,5.61-12.52c.73-1.63.29-2.6-3.16-3.57v-.4h8v.4c-1.29.63-1.73,1.1-2.54,2.83l-7.6,16.46Zm19.7-16.14c.72-1.6.39-2.42-1.89-3.15v-.4h6.8l7.61,16.46c.81,1.74,1.17,2.21,2.28,2.84v.39h-8.67V40c2.18-.68,2.51-1.26,1.79-2.86l-1.3-2.86H166l-1,2.14c-.72,1.63-.28,2.6,3.16,3.57v.4h-8V40A6,6,0,0,0,163,36.74Zm-1.94,8.29h7.79l-3.91-8.63Zm39.34,7.85h-2.7L189.28,24.59V34.91c0,3.21.49,3.91,3.93,5.12v.4H185V40c2.13-1.13,2.46-1.91,2.46-5.12V25.46c0-3.2-.44-3.73-2.71-4.33v-.4h6.75l12.84,14.34V26.25c0-3.21-.49-3.91-3.94-5.12v-.4h8.23v.4c-2.11,1.13-2.45,1.91-2.45,5.12Zm5.3,0V40c2.28-.6,2.72-1.13,2.72-4.33V25.46c0-3.2-.44-3.73-2.72-4.33v-.4h11.16c6.47,0,12.19,4.2,12.19,9.85s-5.72,9.84-12.19,9.84Zm6.86-1.73h4.17c4.47,0,7.66-2.49,7.66-8.11s-3.19-8.11-7.66-8.11h-4.17Zm18.43-18h19.36l.64,6.8h-.39c-2.56-4.59-3.9-5.06-6.41-5.06h-6.34v7h4.11c1.19,0,1.79-.32,3.68-3.73h.39v9.19h-.39c-1.89-3.41-2.49-3.73-3.68-3.73h-4.11v7.51h6.21c2.74,0,4.22-.73,6.86-5.59h.39l-.7,7.33H236.75V40c2.27-.6,2.72-1.13,2.72-4.33V25.46c0-3.2-.45-3.73-2.72-4.33ZM270.39,40v.39h-9.84V40c2.28-.61,2.72-1.13,2.72-4.33V25.46c0-3.2-.44-3.73-2.72-4.33v-.4h11.21c6.52,0,9.73,1.87,9.73,5.07,0,2.31-2.35,4-6.42,4.44,2.72.42,3.94,1.73,5.05,4.25l1.45,3.31c.62,1.42.91,1.73,2.12,2.23v.39h-2.95c-2.33,0-3.08-.63-3.83-2.68l-1.32-3.57c-.93-2.52-1.71-3-4-3h-4.14V35.7C267.42,38.93,267.86,39.42,270.39,40ZM277,25.93c0-2.47-1.76-3.46-5.46-3.46h-4.09V29.4h4.09C275.21,29.4,277,28.4,277,25.93ZM296,40.42H285.12V40c2.23-.61,2.59-1.13,2.59-4.33V25.46c0-3.2-.44-3.73-2.72-4.33v-.4h10.67c6.47,0,9.68,1.89,9.68,4.75,0,2.5-2.36,4.1-6.58,4.44,4.79.32,7.53,2.42,7.53,5.07,0,3.31-3.42,5.43-10.25,5.43Zm-.62-11.13c3.57,0,5.38-1,5.38-3.41s-1.81-3.41-5.38-3.41h-3.57v6.82Zm.44,9.4c3.94,0,5.77-1.13,5.77-3.83S299.8,31,295.86,31h-4v7.67Zm22.34,1.73h-9.58V40c2.28-.61,2.72-1.13,2.72-4.33V25.46c0-3.2-.44-3.73-2.72-4.33v-.4h9.58v.4c-2.28.6-2.72,1.13-2.72,4.33V35.7c0,3.2.44,3.72,2.72,4.33Zm2.84,0V40c2.28-.61,2.72-1.13,2.72-4.33V25.46c0-3.2-.44-3.73-2.72-4.33v-.4h9.83v.4c-2.54.6-3,1.13-3,4.33V38.69h5.17c3,0,4.51-1,7.17-6.12h.39l-.75,7.85Zm20.32-19.69h19.82l.68,7.07h-.39c-2.56-4.6-3.93-5.33-6.45-5.33h-1.68V35.7c0,3.23.44,3.72,3,4.33v.39H346.23V40c2.54-.61,3-1.1,3-4.33V22.47h-1.69c-2.51,0-3.88.73-6.44,5.33h-.39Z"/><path class="cls-2" d="M23.15,0H0V1.06C6.93,5.8,10.26,9.48,14.58,18.75L47.9,90H62.84Z"/><path class="cls-3" d="M62.84,90V58.54L44.45,19.1c-4.32-9.19-3.19-13.86,4.1-18V0H23.15Z"/><path class="cls-4" d="M102.54,0h23.15V1.06c-6.94,4.74-10.26,8.42-14.58,17.69L77.79,90h-15Z"/><path class="cls-5" d="M62.85,90V58.54L81.24,19.1c4.32-9.19,3.19-13.86-4.1-18V0h25.4Z"/></g></g></svg>